<svg xmlns="http://www.w3.org/2000/svg" width="980" height="560" viewBox="0 0 980 560" font-family='system-ui, -apple-system, "Segoe UI", sans-serif'>
<rect width="980" height="560" fill="#fcfcfb"/>
<text x="36" y="42" font-size="20" font-weight="600" fill="#0b0b0b">The same regulators take +72% longer than they did in 2022.</text>
<text x="36" y="68" font-size="13.5" fill="#52514e">Days from the authority opening a case to deciding it, by year of decision. Band is the middle half of cases.</text>
<text x="36" y="87" font-size="13.5" fill="#52514e">Only the 849 decisions (25%) that record both dates, so read the coverage panel before the line.</text>
<line x1="36" y1="112" x2="62" y2="112" stroke="#2361b0" stroke-width="3"/>
<text x="70" y="116" font-size="12" fill="#52514e">same authorities every year (Belgium, Italy, Spain)</text>
<line x1="420" y1="112" x2="446" y2="112" stroke="#b5651d" stroke-width="2" stroke-dasharray="5 3"/>
<text x="454" y="116" font-size="12" fill="#8a8880">all authorities &#8212; diluted by who joined when</text>
<text x="36" y="174" font-size="11.5" fill="#8a8880">days from opening to decision</text>
<line x1="92" y1="417.8" x2="596" y2="417.8" stroke="#e3e2db"/>
<text x="82" y="421.8" font-size="11.5" fill="#8a8880" text-anchor="end">200</text>
<line x1="92" y1="371.7" x2="596" y2="371.7" stroke="#e3e2db"/>
<text x="82" y="375.7" font-size="11.5" fill="#8a8880" text-anchor="end">400</text>
<line x1="92" y1="325.5" x2="596" y2="325.5" stroke="#e3e2db"/>
<text x="82" y="329.5" font-size="11.5" fill="#8a8880" text-anchor="end">600</text>
<line x1="92" y1="279.4" x2="596" y2="279.4" stroke="#e3e2db"/>
<text x="82" y="283.4" font-size="11.5" fill="#8a8880" text-anchor="end">800</text>
<line x1="92" y1="233.2" x2="596" y2="233.2" stroke="#e3e2db"/>
<text x="82" y="237.2" font-size="11.5" fill="#8a8880" text-anchor="end">1,000</text>
<line x1="92" y1="464" x2="596" y2="464" stroke="#8a8880"/>
<polygon points="92.0,437.3 218.0,442.2 344.0,402.7 470.0,397.3 596.0,390.9 596.0,225.1 470.0,280.3 344.0,277.1 218.0,291.9 92.0,307.6" fill="#dbe5f2"/>
<path d="M92.0,375.3 L218.0,356.7 L344.0,336.8 L470.0,338.9 L596.0,324.1" fill="none" stroke="#b5651d" stroke-width="2" stroke-dasharray="5 3"/>
<path d="M92.0,387.7 L218.0,370.5 L344.0,350.2 L470.0,333.1 L596.0,310.3" fill="none" stroke="#2361b0" stroke-width="3"/>
<circle cx="92.0" cy="387.7" r="5.4" fill="#2361b0" stroke="#fcfcfb" stroke-width="2"/>
<text x="101.0" y="373.7" font-size="12" font-weight="600" fill="#0b0b0b" text-anchor="start">330</text>
<circle cx="218.0" cy="370.5" r="5.4" fill="#2361b0" stroke="#fcfcfb" stroke-width="2"/>
<text x="218.0" y="356.5" font-size="12" font-weight="600" fill="#0b0b0b" text-anchor="middle">405</text>
<circle cx="344.0" cy="350.2" r="5.4" fill="#2361b0" stroke="#fcfcfb" stroke-width="2"/>
<text x="344.0" y="336.2" font-size="12" font-weight="600" fill="#0b0b0b" text-anchor="middle">493</text>
<circle cx="470.0" cy="333.1" r="5.4" fill="#2361b0" stroke="#fcfcfb" stroke-width="2"/>
<text x="470.0" y="319.1" font-size="12" font-weight="600" fill="#0b0b0b" text-anchor="middle">567</text>
<circle cx="596.0" cy="310.3" r="5.4" fill="#2361b0" stroke="#fcfcfb" stroke-width="2"/>
<text x="596.0" y="296.3" font-size="12" font-weight="600" fill="#0b0b0b" text-anchor="middle">666</text>
<text x="92.0" y="484" font-size="12" fill="#52514e" text-anchor="middle">2022</text>
<text x="92.0" y="501" font-size="11" fill="#8a8880" text-anchor="middle">n=82 of 184</text>
<text x="218.0" y="484" font-size="12" fill="#52514e" text-anchor="middle">2023</text>
<text x="218.0" y="501" font-size="11" fill="#8a8880" text-anchor="middle">n=88 of 211</text>
<text x="344.0" y="484" font-size="12" fill="#52514e" text-anchor="middle">2024</text>
<text x="344.0" y="501" font-size="11" fill="#8a8880" text-anchor="middle">n=100 of 195</text>
<text x="470.0" y="484" font-size="12" fill="#52514e" text-anchor="middle">2025</text>
<text x="470.0" y="501" font-size="11" fill="#8a8880" text-anchor="middle">n=99 of 161</text>
<text x="596.0" y="484" font-size="12" fill="#8a8880" text-anchor="middle">2026 (partial)</text>
<text x="596.0" y="501" font-size="11" fill="#8a8880" text-anchor="middle">n=30 of 77</text>
<text x="596.0" y="211.4" font-size="11.5" fill="#8a8880" text-anchor="end">slowest quarter of panel cases above here</text>
<text x="632" y="174" font-size="12.5" font-weight="600" fill="#0b0b0b">Coverage by authority</text>
<text x="632" y="192" font-size="11" fill="#8a8880">share recording both dates</text>
<text x="632" y="216" font-size="11.5" fill="#52514e">Austria</text>
<rect x="728" y="207" width="57" height="11" rx="2" fill="#2361b0" opacity="0.75"/>
<text x="852" y="216" font-size="11" fill="#8a8880" text-anchor="end">48%</text>
<text x="632" y="242" font-size="11.5" fill="#52514e">Belgium</text>
<rect x="728" y="233" width="51" height="11" rx="2" fill="#2361b0" opacity="0.75"/>
<text x="852" y="242" font-size="11" fill="#8a8880" text-anchor="end">44%</text>
<text x="632" y="268" font-size="11.5" fill="#52514e">Greece</text>
<rect x="728" y="259" width="51" height="11" rx="2" fill="#2361b0" opacity="0.75"/>
<text x="852" y="268" font-size="11" fill="#8a8880" text-anchor="end">43%</text>
<text x="632" y="294" font-size="11.5" fill="#52514e">Finland</text>
<rect x="728" y="285" width="46" height="11" rx="2" fill="#2361b0" opacity="0.75"/>
<text x="852" y="294" font-size="11" fill="#8a8880" text-anchor="end">39%</text>
<text x="632" y="320" font-size="11.5" fill="#52514e">Hungary</text>
<rect x="728" y="311" width="43" height="11" rx="2" fill="#2361b0" opacity="0.75"/>
<text x="852" y="320" font-size="11" fill="#8a8880" text-anchor="end">36%</text>
<text x="632" y="346" font-size="11.5" fill="#52514e">France</text>
<rect x="728" y="337" width="40" height="11" rx="2" fill="#2361b0" opacity="0.75"/>
<text x="852" y="346" font-size="11" fill="#8a8880" text-anchor="end">34%</text>
<text x="632" y="372" font-size="11.5" fill="#52514e">Norway</text>
<rect x="728" y="363" width="36" height="11" rx="2" fill="#2361b0" opacity="0.75"/>
<text x="852" y="372" font-size="11" fill="#8a8880" text-anchor="end">31%</text>
<text x="632" y="412" font-size="11" fill="#8a8880">No single authority dominates the</text>
<text x="632" y="427" font-size="11" fill="#8a8880">dated set, so the line is not one</text>
<text x="632" y="442" font-size="11" fill="#8a8880">regulator&#8217;s habits.</text>
<text x="36" y="518" font-size="11.5" fill="#8a8880">Decisions recording both dates only; a case opened before the regulation cannot appear. Counts are panel cases of all dated cases; the band is the panel&#8217;s middle half.</text>
<text x="36" y="536" font-size="11.5" fill="#8a8880">The final year is partial: cases still open are not in it, and slow cases finish late, so the last point understates its year.</text>
<text x="36" y="554" font-size="11.5" fill="#8a8880">Method and code: github.com/q3dresearch/cookbook &#183; recipes/gdpr-enforced-articles</text>
</svg>