<svg xmlns="http://www.w3.org/2000/svg" width="1200" height="582" viewBox="0 0 1200 582"><rect width="1200" height="582" fill="#ffffff"/><text x="40.0" y="44.0" font-family="-apple-system,BlinkMacSystemFont,'Segoe UI',Roboto,Helvetica,Arial,sans-serif" font-size="21" fill="#1c2530" text-anchor="start" font-weight="600">How old is the law you are reading?</text><text x="40.0" y="68.0" font-family="-apple-system,BlinkMacSystemFont,'Segoe UI',Roboto,Helvetica,Arial,sans-serif" font-size="12.5" fill="#6b7684" text-anchor="start" font-weight="normal">Years since last amendment, for every in-force section of CFR Title 12 (Banks and Banking) that carries its own source note.</text><text x="40.0" y="110.0" font-family="-apple-system,BlinkMacSystemFont,'Segoe UI',Roboto,Helvetica,Arial,sans-serif" font-size="12.5" fill="#6b7684" text-anchor="start" font-weight="normal">Box spans the middle half, line inside is the median, whiskers reach the 10th and 90th percentile. Every section past the 90th is drawn.</text><line x1="262.0" y1="140.0" x2="262.0" y2="480.0" stroke="#dfe4ea" stroke-width="1"/><text x="262.0" y="134.0" font-family="-apple-system,BlinkMacSystemFont,'Segoe UI',Roboto,Helvetica,Arial,sans-serif" font-size="11" fill="#6b7684" text-anchor="middle" font-weight="normal">0</text><line x1="351.7" y1="140.0" x2="351.7" y2="480.0" stroke="#dfe4ea" stroke-width="1"/><text x="351.7" y="134.0" font-family="-apple-system,BlinkMacSystemFont,'Segoe UI',Roboto,Helvetica,Arial,sans-serif" font-size="11" fill="#6b7684" text-anchor="middle" font-weight="normal">10</text><line x1="441.5" y1="140.0" x2="441.5" y2="480.0" stroke="#dfe4ea" stroke-width="1"/><text x="441.5" y="134.0" font-family="-apple-system,BlinkMacSystemFont,'Segoe UI',Roboto,Helvetica,Arial,sans-serif" font-size="11" fill="#6b7684" text-anchor="middle" font-weight="normal">20</text><line x1="531.2" y1="140.0" x2="531.2" y2="480.0" stroke="#dfe4ea" stroke-width="1"/><text x="531.2" y="134.0" font-family="-apple-system,BlinkMacSystemFont,'Segoe UI',Roboto,Helvetica,Arial,sans-serif" font-size="11" fill="#6b7684" text-anchor="middle" font-weight="normal">30</text><line x1="621.0" y1="140.0" x2="621.0" y2="480.0" stroke="#dfe4ea" stroke-width="1"/><text x="621.0" y="134.0" font-family="-apple-system,BlinkMacSystemFont,'Segoe UI',Roboto,Helvetica,Arial,sans-serif" font-size="11" fill="#6b7684" text-anchor="middle" font-weight="normal">40</text><line x1="710.7" y1="140.0" x2="710.7" y2="480.0" stroke="#dfe4ea" stroke-width="1"/><text x="710.7" y="134.0" font-family="-apple-system,BlinkMacSystemFont,'Segoe UI',Roboto,Helvetica,Arial,sans-serif" font-size="11" fill="#6b7684" text-anchor="middle" font-weight="normal">50</text><line x1="800.5" y1="140.0" x2="800.5" y2="480.0" stroke="#dfe4ea" stroke-width="1"/><text x="800.5" y="134.0" font-family="-apple-system,BlinkMacSystemFont,'Segoe UI',Roboto,Helvetica,Arial,sans-serif" font-size="11" fill="#6b7684" text-anchor="middle" font-weight="normal">60</text><line x1="890.2" y1="140.0" x2="890.2" y2="480.0" stroke="#dfe4ea" stroke-width="1"/><text x="890.2" y="134.0" font-family="-apple-system,BlinkMacSystemFont,'Segoe UI',Roboto,Helvetica,Arial,sans-serif" font-size="11" fill="#6b7684" text-anchor="middle" font-weight="normal">70</text><line x1="979.9" y1="140.0" x2="979.9" y2="480.0" stroke="#dfe4ea" stroke-width="1"/><text x="979.9" y="134.0" font-family="-apple-system,BlinkMacSystemFont,'Segoe UI',Roboto,Helvetica,Arial,sans-serif" font-size="11" fill="#6b7684" text-anchor="middle" font-weight="normal">80</text><text x="627.0" y="530.0" font-family="-apple-system,BlinkMacSystemFont,'Segoe UI',Roboto,Helvetica,Arial,sans-serif" font-size="12" fill="#6b7684" text-anchor="middle" font-weight="normal">years since last amendment</text><text x="1084.0" y="120.0" font-family="-apple-system,BlinkMacSystemFont,'Segoe UI',Roboto,Helvetica,Arial,sans-serif" font-size="11" fill="#6b7684" text-anchor="middle" font-weight="normal">mean amendments</text><text x="1084.0" y="134.0" font-family="-apple-system,BlinkMacSystemFont,'Segoe UI',Roboto,Helvetica,Arial,sans-serif" font-size="11" fill="#6b7684" text-anchor="middle" font-weight="normal">per section</text><line x1="349.8" y1="140.0" x2="349.8" y2="480.0" stroke="#4a3aa7" stroke-width="1.2" stroke-dasharray="4 3"/><text x="356.8" y="501.0" font-family="-apple-system,BlinkMacSystemFont,'Segoe UI',Roboto,Helvetica,Arial,sans-serif" font-size="10.5" fill="#4a3aa7" text-anchor="start" font-weight="normal">title median 9.8y</text><text x="248.0" y="166.0" font-family="-apple-system,BlinkMacSystemFont,'Segoe UI',Roboto,Helvetica,Arial,sans-serif" font-size="12.5" fill="#1c2530" text-anchor="end" font-weight="normal">Farm Credit Admin</text><text x="248.0" y="180.0" font-family="-apple-system,BlinkMacSystemFont,'Segoe UI',Roboto,Helvetica,Arial,sans-serif" font-size="10.5" fill="#6b7684" text-anchor="end" font-weight="normal">n=331</text><line x1="300.8" y1="167.0" x2="352.7" y2="167.0" stroke="#2a78d6" stroke-width="1.3"/><line x1="519.9" y1="167.0" x2="587.0" y2="167.0" stroke="#2a78d6" stroke-width="1.3"/><line x1="300.8" y1="162.0" x2="300.8" y2="172.0" stroke="#2a78d6" stroke-width="1.3"/><line x1="587.0" y1="162.0" x2="587.0" y2="172.0" stroke="#2a78d6" stroke-width="1.3"/><rect x="352.7" y="156.0" width="167.2" height="22.0" fill="#2a78d6" fill-opacity="0.2" stroke="#2a78d6" stroke-width="1.3" rx="0"/><line x1="409.2" y1="156.0" x2="409.2" y2="178.0" stroke="#2a78d6" stroke-width="2.6"/><circle cx="591.7" cy="167.0" r="2.4" fill="#eb6834" fill-opacity="0.75"/><circle cx="591.7" cy="167.0" r="2.4" fill="#eb6834" fill-opacity="0.75"/><circle cx="591.7" cy="167.0" r="2.4" fill="#eb6834" fill-opacity="0.75"/><circle cx="599.9" cy="167.0" r="2.4" fill="#eb6834" fill-opacity="0.75"/><circle cx="599.9" cy="167.0" r="2.4" fill="#eb6834" fill-opacity="0.75"/><circle cx="599.9" cy="167.0" r="2.4" fill="#eb6834" fill-opacity="0.75"/><circle cx="599.9" cy="167.0" r="2.4" fill="#eb6834" fill-opacity="0.75"/><circle cx="599.9" cy="167.0" r="2.4" fill="#eb6834" fill-opacity="0.75"/><circle cx="599.9" cy="167.0" r="2.4" fill="#eb6834" fill-opacity="0.75"/><circle cx="602.1" cy="167.0" r="2.4" fill="#eb6834" fill-opacity="0.75"/><circle cx="619.1" cy="167.0" r="2.4" fill="#eb6834" fill-opacity="0.75"/><circle cx="619.1" cy="167.0" r="2.4" fill="#eb6834" fill-opacity="0.75"/><circle cx="619.1" cy="167.0" r="2.4" fill="#eb6834" fill-opacity="0.75"/><circle cx="619.1" cy="167.0" r="2.4" fill="#eb6834" fill-opacity="0.75"/><circle cx="619.1" cy="167.0" r="2.4" fill="#eb6834" fill-opacity="0.75"/><circle cx="619.1" cy="167.0" r="2.4" fill="#eb6834" fill-opacity="0.75"/><circle cx="619.1" cy="167.0" r="2.4" fill="#eb6834" fill-opacity="0.75"/><circle cx="619.1" cy="167.0" r="2.4" fill="#eb6834" fill-opacity="0.75"/><circle cx="619.1" cy="167.0" r="2.4" fill="#eb6834" fill-opacity="0.75"/><circle cx="619.1" cy="167.0" r="2.4" fill="#eb6834" fill-opacity="0.75"/><circle cx="619.1" cy="167.0" r="2.4" fill="#eb6834" fill-opacity="0.75"/><circle cx="619.1" cy="167.0" r="2.4" fill="#eb6834" fill-opacity="0.75"/><circle cx="619.1" cy="167.0" r="2.4" fill="#eb6834" fill-opacity="0.75"/><circle cx="690.8" cy="167.0" r="2.4" fill="#eb6834" fill-opacity="0.75"/><circle cx="705.2" cy="167.0" r="2.4" fill="#eb6834" fill-opacity="0.75"/><circle cx="718.6" cy="167.0" r="2.4" fill="#eb6834" fill-opacity="0.75"/><circle cx="748.8" cy="167.0" r="2.4" fill="#eb6834" fill-opacity="0.75"/><rect x="1038.0" y="160.0" width="41.6" height="14.0" fill="#1baf7a" fill-opacity="0.75" stroke="none" stroke-width="1" rx="0"/><text x="1112.0" y="171.0" font-family="-apple-system,BlinkMacSystemFont,'Segoe UI',Roboto,Helvetica,Arial,sans-serif" font-size="11.5" fill="#1c2530" text-anchor="start" font-weight="normal">1.5</text><text x="248.0" y="208.0" font-family="-apple-system,BlinkMacSystemFont,'Segoe UI',Roboto,Helvetica,Arial,sans-serif" font-size="12.5" fill="#1c2530" text-anchor="end" font-weight="normal">Federal Reserve</text><text x="248.0" y="222.0" font-family="-apple-system,BlinkMacSystemFont,'Segoe UI',Roboto,Helvetica,Arial,sans-serif" font-size="10.5" fill="#6b7684" text-anchor="end" font-weight="normal">n=601</text><line x1="312.0" y1="209.0" x2="323.5" y2="209.0" stroke="#2a78d6" stroke-width="1.3"/><line x1="501.0" y1="209.0" x2="668.2" y2="209.0" stroke="#2a78d6" stroke-width="1.3"/><line x1="312.0" y1="204.0" x2="312.0" y2="214.0" stroke="#2a78d6" stroke-width="1.3"/><line x1="668.2" y1="204.0" x2="668.2" y2="214.0" stroke="#2a78d6" stroke-width="1.3"/><rect x="323.5" y="198.0" width="177.6" height="22.0" fill="#2a78d6" fill-opacity="0.2" stroke="#2a78d6" stroke-width="1.3" rx="0"/><line x1="368.2" y1="198.0" x2="368.2" y2="220.0" stroke="#2a78d6" stroke-width="2.6"/><circle cx="671.3" cy="209.0" r="2.4" fill="#eb6834" fill-opacity="0.75"/><circle cx="674.0" cy="209.0" r="2.4" fill="#eb6834" fill-opacity="0.75"/><circle cx="675.2" cy="209.0" r="2.4" fill="#eb6834" fill-opacity="0.75"/><circle cx="675.2" cy="209.0" r="2.4" fill="#eb6834" fill-opacity="0.75"/><circle cx="675.8" cy="209.0" r="2.4" fill="#eb6834" fill-opacity="0.75"/><circle cx="676.1" cy="209.0" r="2.4" fill="#eb6834" fill-opacity="0.75"/><circle cx="676.4" cy="209.0" r="2.4" fill="#eb6834" fill-opacity="0.75"/><circle cx="679.7" cy="209.0" r="2.4" fill="#eb6834" fill-opacity="0.75"/><circle cx="688.4" cy="209.0" r="2.4" fill="#eb6834" fill-opacity="0.75"/><circle cx="688.4" cy="209.0" r="2.4" fill="#eb6834" fill-opacity="0.75"/><circle cx="691.0" cy="209.0" r="2.4" fill="#eb6834" fill-opacity="0.75"/><circle cx="693.6" cy="209.0" r="2.4" fill="#eb6834" fill-opacity="0.75"/><circle cx="695.5" cy="209.0" r="2.4" fill="#eb6834" fill-opacity="0.75"/><circle cx="706.5" cy="209.0" r="2.4" fill="#eb6834" fill-opacity="0.75"/><circle cx="707.5" cy="209.0" r="2.4" fill="#eb6834" fill-opacity="0.75"/><circle cx="707.8" cy="209.0" r="2.4" fill="#eb6834" fill-opacity="0.75"/><circle cx="714.8" cy="209.0" r="2.4" fill="#eb6834" fill-opacity="0.75"/><circle cx="719.4" cy="209.0" r="2.4" fill="#eb6834" fill-opacity="0.75"/><circle cx="720.1" cy="209.0" r="2.4" fill="#eb6834" fill-opacity="0.75"/><circle cx="723.9" cy="209.0" r="2.4" fill="#eb6834" fill-opacity="0.75"/><circle cx="725.8" cy="209.0" r="2.4" fill="#eb6834" fill-opacity="0.75"/><circle cx="730.6" cy="209.0" r="2.4" fill="#eb6834" fill-opacity="0.75"/><circle cx="734.9" cy="209.0" r="2.4" fill="#eb6834" fill-opacity="0.75"/><circle cx="734.9" cy="209.0" r="2.4" fill="#eb6834" fill-opacity="0.75"/><circle cx="740.2" cy="209.0" r="2.4" fill="#eb6834" fill-opacity="0.75"/><circle cx="740.6" cy="209.0" r="2.4" fill="#eb6834" fill-opacity="0.75"/><circle cx="740.7" cy="209.0" r="2.4" fill="#eb6834" fill-opacity="0.75"/><circle cx="742.0" cy="209.0" r="2.4" fill="#eb6834" fill-opacity="0.75"/><circle cx="750.5" cy="209.0" r="2.4" fill="#eb6834" fill-opacity="0.75"/><circle cx="751.2" cy="209.0" r="2.4" fill="#eb6834" fill-opacity="0.75"/><circle cx="753.9" cy="209.0" r="2.4" fill="#eb6834" fill-opacity="0.75"/><circle cx="753.9" cy="209.0" r="2.4" fill="#eb6834" fill-opacity="0.75"/><circle cx="753.9" cy="209.0" r="2.4" fill="#eb6834" fill-opacity="0.75"/><circle cx="753.9" cy="209.0" r="2.4" fill="#eb6834" fill-opacity="0.75"/><circle cx="753.9" cy="209.0" r="2.4" fill="#eb6834" fill-opacity="0.75"/><circle cx="753.9" cy="209.0" r="2.4" fill="#eb6834" fill-opacity="0.75"/><circle cx="753.9" cy="209.0" r="2.4" fill="#eb6834" fill-opacity="0.75"/><circle cx="753.9" cy="209.0" r="2.4" fill="#eb6834" fill-opacity="0.75"/><circle cx="753.9" cy="209.0" r="2.4" fill="#eb6834" fill-opacity="0.75"/><circle cx="753.9" cy="209.0" r="2.4" fill="#eb6834" fill-opacity="0.75"/><circle cx="753.9" cy="209.0" r="2.4" fill="#eb6834" fill-opacity="0.75"/><circle cx="753.9" cy="209.0" r="2.4" fill="#eb6834" fill-opacity="0.75"/><circle cx="753.9" cy="209.0" r="2.4" fill="#eb6834" fill-opacity="0.75"/><circle cx="753.9" cy="209.0" r="2.4" fill="#eb6834" fill-opacity="0.75"/><circle cx="760.7" cy="209.0" r="2.4" fill="#eb6834" fill-opacity="0.75"/><circle cx="769.4" cy="209.0" r="2.4" fill="#eb6834" fill-opacity="0.75"/><circle cx="803.2" cy="209.0" r="2.4" fill="#eb6834" fill-opacity="0.75"/><circle cx="804.0" cy="209.0" r="2.4" fill="#eb6834" fill-opacity="0.75"/><circle cx="833.9" cy="209.0" r="2.4" fill="#eb6834" fill-opacity="0.75"/><circle cx="834.8" cy="209.0" r="2.4" fill="#eb6834" fill-opacity="0.75"/><circle cx="840.0" cy="209.0" r="2.4" fill="#eb6834" fill-opacity="0.75"/><circle cx="841.2" cy="209.0" r="2.4" fill="#eb6834" fill-opacity="0.75"/><circle cx="841.2" cy="209.0" r="2.4" fill="#eb6834" fill-opacity="0.75"/><circle cx="882.2" cy="209.0" r="2.4" fill="#eb6834" fill-opacity="0.75"/><circle cx="916.9" cy="209.0" r="2.4" fill="#eb6834" fill-opacity="0.75"/><circle cx="917.9" cy="209.0" r="2.4" fill="#eb6834" fill-opacity="0.75"/><circle cx="953.0" cy="209.0" r="2.4" fill="#eb6834" fill-opacity="0.75"/><circle cx="965.1" cy="209.0" r="2.4" fill="#eb6834" fill-opacity="0.75"/><circle cx="971.8" cy="209.0" r="2.4" fill="#eb6834" fill-opacity="0.75"/><circle cx="977.7" cy="209.0" r="2.4" fill="#eb6834" fill-opacity="0.75"/><rect x="1038.0" y="202.0" width="41.8" height="14.0" fill="#1baf7a" fill-opacity="0.75" stroke="none" stroke-width="1" rx="0"/><text x="1112.0" y="213.0" font-family="-apple-system,BlinkMacSystemFont,'Segoe UI',Roboto,Helvetica,Arial,sans-serif" font-size="11.5" fill="#1c2530" text-anchor="start" font-weight="normal">1.5</text><text x="248.0" y="250.0" font-family="-apple-system,BlinkMacSystemFont,'Segoe UI',Roboto,Helvetica,Arial,sans-serif" font-size="12.5" fill="#1c2530" text-anchor="end" font-weight="normal">NCUA</text><text x="248.0" y="264.0" font-family="-apple-system,BlinkMacSystemFont,'Segoe UI',Roboto,Helvetica,Arial,sans-serif" font-size="10.5" fill="#6b7684" text-anchor="end" font-weight="normal">n=330</text><line x1="298.4" y1="251.0" x2="314.2" y2="251.0" stroke="#2a78d6" stroke-width="1.3"/><line x1="407.6" y1="251.0" x2="494.1" y2="251.0" stroke="#2a78d6" stroke-width="1.3"/><line x1="298.4" y1="246.0" x2="298.4" y2="256.0" stroke="#2a78d6" stroke-width="1.3"/><line x1="494.1" y1="246.0" x2="494.1" y2="256.0" stroke="#2a78d6" stroke-width="1.3"/><rect x="314.2" y="240.0" width="93.4" height="22.0" fill="#2a78d6" fill-opacity="0.2" stroke="#2a78d6" stroke-width="1.3" rx="0"/><line x1="347.1" y1="240.0" x2="347.1" y2="262.0" stroke="#2a78d6" stroke-width="2.6"/><circle cx="502.3" cy="251.0" r="2.4" fill="#eb6834" fill-opacity="0.75"/><circle cx="502.3" cy="251.0" r="2.4" fill="#eb6834" fill-opacity="0.75"/><circle cx="502.3" cy="251.0" r="2.4" fill="#eb6834" fill-opacity="0.75"/><circle cx="502.3" cy="251.0" r="2.4" fill="#eb6834" fill-opacity="0.75"/><circle cx="503.1" cy="251.0" r="2.4" fill="#eb6834" fill-opacity="0.75"/><circle cx="503.2" cy="251.0" r="2.4" fill="#eb6834" fill-opacity="0.75"/><circle cx="505.3" cy="251.0" r="2.4" fill="#eb6834" fill-opacity="0.75"/><circle cx="510.5" cy="251.0" r="2.4" fill="#eb6834" fill-opacity="0.75"/><circle cx="510.5" cy="251.0" r="2.4" fill="#eb6834" fill-opacity="0.75"/><circle cx="517.8" cy="251.0" r="2.4" fill="#eb6834" fill-opacity="0.75"/><circle cx="518.5" cy="251.0" r="2.4" fill="#eb6834" fill-opacity="0.75"/><circle cx="529.2" cy="251.0" r="2.4" fill="#eb6834" fill-opacity="0.75"/><circle cx="537.3" cy="251.0" r="2.4" fill="#eb6834" fill-opacity="0.75"/><circle cx="550.5" cy="251.0" r="2.4" fill="#eb6834" fill-opacity="0.75"/><circle cx="550.5" cy="251.0" r="2.4" fill="#eb6834" fill-opacity="0.75"/><circle cx="550.5" cy="251.0" r="2.4" fill="#eb6834" fill-opacity="0.75"/><circle cx="550.5" cy="251.0" r="2.4" fill="#eb6834" fill-opacity="0.75"/><circle cx="558.3" cy="251.0" r="2.4" fill="#eb6834" fill-opacity="0.75"/><circle cx="573.1" cy="251.0" r="2.4" fill="#eb6834" fill-opacity="0.75"/><circle cx="573.1" cy="251.0" r="2.4" fill="#eb6834" fill-opacity="0.75"/><circle cx="573.1" cy="251.0" r="2.4" fill="#eb6834" fill-opacity="0.75"/><circle cx="573.1" cy="251.0" r="2.4" fill="#eb6834" fill-opacity="0.75"/><circle cx="573.1" cy="251.0" r="2.4" fill="#eb6834" fill-opacity="0.75"/><circle cx="573.1" cy="251.0" r="2.4" fill="#eb6834" fill-opacity="0.75"/><circle cx="573.1" cy="251.0" r="2.4" fill="#eb6834" fill-opacity="0.75"/><circle cx="573.1" cy="251.0" r="2.4" fill="#eb6834" fill-opacity="0.75"/><circle cx="605.0" cy="251.0" r="2.4" fill="#eb6834" fill-opacity="0.75"/><circle cx="605.4" cy="251.0" r="2.4" fill="#eb6834" fill-opacity="0.75"/><circle cx="639.8" cy="251.0" r="2.4" fill="#eb6834" fill-opacity="0.75"/><circle cx="639.8" cy="251.0" r="2.4" fill="#eb6834" fill-opacity="0.75"/><circle cx="676.1" cy="251.0" r="2.4" fill="#eb6834" fill-opacity="0.75"/><circle cx="684.1" cy="251.0" r="2.4" fill="#eb6834" fill-opacity="0.75"/><rect x="1038.0" y="244.0" width="59.8" height="14.0" fill="#1baf7a" fill-opacity="0.75" stroke="none" stroke-width="1" rx="0"/><text x="1112.0" y="255.0" font-family="-apple-system,BlinkMacSystemFont,'Segoe UI',Roboto,Helvetica,Arial,sans-serif" font-size="11.5" fill="#1c2530" text-anchor="start" font-weight="normal">2.1</text><text x="248.0" y="292.0" font-family="-apple-system,BlinkMacSystemFont,'Segoe UI',Roboto,Helvetica,Arial,sans-serif" font-size="12.5" fill="#1c2530" text-anchor="end" font-weight="normal">FHFA</text><text x="248.0" y="306.0" font-family="-apple-system,BlinkMacSystemFont,'Segoe UI',Roboto,Helvetica,Arial,sans-serif" font-size="10.5" fill="#6b7684" text-anchor="end" font-weight="normal">n=199</text><line x1="285.6" y1="293.0" x2="303.1" y2="293.0" stroke="#2a78d6" stroke-width="1.3"/><line x1="358.0" y1="293.0" x2="410.4" y2="293.0" stroke="#2a78d6" stroke-width="1.3"/><line x1="285.6" y1="288.0" x2="285.6" y2="298.0" stroke="#2a78d6" stroke-width="1.3"/><line x1="410.4" y1="288.0" x2="410.4" y2="298.0" stroke="#2a78d6" stroke-width="1.3"/><rect x="303.1" y="282.0" width="54.9" height="22.0" fill="#2a78d6" fill-opacity="0.2" stroke="#2a78d6" stroke-width="1.3" rx="0"/><line x1="343.8" y1="282.0" x2="343.8" y2="304.0" stroke="#2a78d6" stroke-width="2.6"/><circle cx="413.8" cy="293.0" r="2.4" fill="#eb6834" fill-opacity="0.75"/><circle cx="413.8" cy="293.0" r="2.4" fill="#eb6834" fill-opacity="0.75"/><circle cx="413.8" cy="293.0" r="2.4" fill="#eb6834" fill-opacity="0.75"/><circle cx="415.4" cy="293.0" r="2.4" fill="#eb6834" fill-opacity="0.75"/><circle cx="415.4" cy="293.0" r="2.4" fill="#eb6834" fill-opacity="0.75"/><circle cx="415.4" cy="293.0" r="2.4" fill="#eb6834" fill-opacity="0.75"/><circle cx="422.9" cy="293.0" r="2.4" fill="#eb6834" fill-opacity="0.75"/><circle cx="443.4" cy="293.0" r="2.4" fill="#eb6834" fill-opacity="0.75"/><circle cx="479.5" cy="293.0" r="2.4" fill="#eb6834" fill-opacity="0.75"/><circle cx="481.6" cy="293.0" r="2.4" fill="#eb6834" fill-opacity="0.75"/><circle cx="481.6" cy="293.0" r="2.4" fill="#eb6834" fill-opacity="0.75"/><circle cx="496.5" cy="293.0" r="2.4" fill="#eb6834" fill-opacity="0.75"/><circle cx="496.5" cy="293.0" r="2.4" fill="#eb6834" fill-opacity="0.75"/><circle cx="496.5" cy="293.0" r="2.4" fill="#eb6834" fill-opacity="0.75"/><circle cx="496.5" cy="293.0" r="2.4" fill="#eb6834" fill-opacity="0.75"/><circle cx="496.5" cy="293.0" r="2.4" fill="#eb6834" fill-opacity="0.75"/><circle cx="496.5" cy="293.0" r="2.4" fill="#eb6834" fill-opacity="0.75"/><circle cx="496.6" cy="293.0" r="2.4" fill="#eb6834" fill-opacity="0.75"/><rect x="1038.0" y="286.0" width="44.8" height="14.0" fill="#1baf7a" fill-opacity="0.75" stroke="none" stroke-width="1" rx="0"/><text x="1112.0" y="297.0" font-family="-apple-system,BlinkMacSystemFont,'Segoe UI',Roboto,Helvetica,Arial,sans-serif" font-size="11.5" fill="#1c2530" text-anchor="start" font-weight="normal">1.6</text><text x="248.0" y="334.0" font-family="-apple-system,BlinkMacSystemFont,'Segoe UI',Roboto,Helvetica,Arial,sans-serif" font-size="12.5" fill="#1c2530" text-anchor="end" font-weight="normal">FDIC</text><text x="248.0" y="348.0" font-family="-apple-system,BlinkMacSystemFont,'Segoe UI',Roboto,Helvetica,Arial,sans-serif" font-size="10.5" fill="#6b7684" text-anchor="end" font-weight="normal">n=396</text><line x1="284.8" y1="335.0" x2="315.6" y2="335.0" stroke="#2a78d6" stroke-width="1.3"/><line x1="403.5" y1="335.0" x2="468.8" y2="335.0" stroke="#2a78d6" stroke-width="1.3"/><line x1="284.8" y1="330.0" x2="284.8" y2="340.0" stroke="#2a78d6" stroke-width="1.3"/><line x1="468.8" y1="330.0" x2="468.8" y2="340.0" stroke="#2a78d6" stroke-width="1.3"/><rect x="315.6" y="324.0" width="87.9" height="22.0" fill="#2a78d6" fill-opacity="0.2" stroke="#2a78d6" stroke-width="1.3" rx="0"/><line x1="337.9" y1="324.0" x2="337.9" y2="346.0" stroke="#2a78d6" stroke-width="2.6"/><circle cx="475.3" cy="335.0" r="2.4" fill="#eb6834" fill-opacity="0.75"/><circle cx="475.3" cy="335.0" r="2.4" fill="#eb6834" fill-opacity="0.75"/><circle cx="475.3" cy="335.0" r="2.4" fill="#eb6834" fill-opacity="0.75"/><circle cx="475.3" cy="335.0" r="2.4" fill="#eb6834" fill-opacity="0.75"/><circle cx="475.3" cy="335.0" r="2.4" fill="#eb6834" fill-opacity="0.75"/><circle cx="475.3" cy="335.0" r="2.4" fill="#eb6834" fill-opacity="0.75"/><circle cx="479.6" cy="335.0" r="2.4" fill="#eb6834" fill-opacity="0.75"/><circle cx="479.6" cy="335.0" r="2.4" fill="#eb6834" fill-opacity="0.75"/><circle cx="480.2" cy="335.0" r="2.4" fill="#eb6834" fill-opacity="0.75"/><circle cx="492.3" cy="335.0" r="2.4" fill="#eb6834" fill-opacity="0.75"/><circle cx="492.3" cy="335.0" r="2.4" fill="#eb6834" fill-opacity="0.75"/><circle cx="492.3" cy="335.0" r="2.4" fill="#eb6834" fill-opacity="0.75"/><circle cx="492.3" cy="335.0" r="2.4" fill="#eb6834" fill-opacity="0.75"/><circle cx="492.3" cy="335.0" r="2.4" fill="#eb6834" fill-opacity="0.75"/><circle cx="502.6" cy="335.0" r="2.4" fill="#eb6834" fill-opacity="0.75"/><circle cx="502.6" cy="335.0" r="2.4" fill="#eb6834" fill-opacity="0.75"/><circle cx="502.6" cy="335.0" r="2.4" fill="#eb6834" fill-opacity="0.75"/><circle cx="502.6" cy="335.0" r="2.4" fill="#eb6834" fill-opacity="0.75"/><circle cx="502.6" cy="335.0" r="2.4" fill="#eb6834" fill-opacity="0.75"/><circle cx="502.6" cy="335.0" r="2.4" fill="#eb6834" fill-opacity="0.75"/><circle cx="502.6" cy="335.0" r="2.4" fill="#eb6834" fill-opacity="0.75"/><circle cx="508.2" cy="335.0" r="2.4" fill="#eb6834" fill-opacity="0.75"/><circle cx="513.7" cy="335.0" r="2.4" fill="#eb6834" fill-opacity="0.75"/><circle cx="514.6" cy="335.0" r="2.4" fill="#eb6834" fill-opacity="0.75"/><circle cx="514.6" cy="335.0" r="2.4" fill="#eb6834" fill-opacity="0.75"/><circle cx="531.6" cy="335.0" r="2.4" fill="#eb6834" fill-opacity="0.75"/><circle cx="531.6" cy="335.0" r="2.4" fill="#eb6834" fill-opacity="0.75"/><circle cx="531.6" cy="335.0" r="2.4" fill="#eb6834" fill-opacity="0.75"/><circle cx="531.6" cy="335.0" r="2.4" fill="#eb6834" fill-opacity="0.75"/><circle cx="532.3" cy="335.0" r="2.4" fill="#eb6834" fill-opacity="0.75"/><circle cx="532.3" cy="335.0" r="2.4" fill="#eb6834" fill-opacity="0.75"/><circle cx="541.6" cy="335.0" r="2.4" fill="#eb6834" fill-opacity="0.75"/><circle cx="541.6" cy="335.0" r="2.4" fill="#eb6834" fill-opacity="0.75"/><circle cx="593.7" cy="335.0" r="2.4" fill="#eb6834" fill-opacity="0.75"/><circle cx="617.8" cy="335.0" r="2.4" fill="#eb6834" fill-opacity="0.75"/><circle cx="634.2" cy="335.0" r="2.4" fill="#eb6834" fill-opacity="0.75"/><circle cx="707.0" cy="335.0" r="2.4" fill="#eb6834" fill-opacity="0.75"/><circle cx="941.8" cy="335.0" r="2.4" fill="#eb6834" fill-opacity="0.75"/><circle cx="941.8" cy="335.0" r="2.4" fill="#eb6834" fill-opacity="0.75"/><rect x="1038.0" y="328.0" width="44.1" height="14.0" fill="#1baf7a" fill-opacity="0.75" stroke="none" stroke-width="1" rx="0"/><text x="1112.0" y="339.0" font-family="-apple-system,BlinkMacSystemFont,'Segoe UI',Roboto,Helvetica,Arial,sans-serif" font-size="11.5" fill="#1c2530" text-anchor="start" font-weight="normal">1.6</text><text x="248.0" y="376.0" font-family="-apple-system,BlinkMacSystemFont,'Segoe UI',Roboto,Helvetica,Arial,sans-serif" font-size="12.5" fill="#1c2530" text-anchor="end" font-weight="normal">CFPB</text><text x="248.0" y="390.0" font-family="-apple-system,BlinkMacSystemFont,'Segoe UI',Roboto,Helvetica,Arial,sans-serif" font-size="10.5" fill="#6b7684" text-anchor="end" font-weight="normal">n=169</text><line x1="276.1" y1="377.0" x2="280.7" y2="377.0" stroke="#2a78d6" stroke-width="1.3"/><line x1="354.6" y1="377.0" x2="375.9" y2="377.0" stroke="#2a78d6" stroke-width="1.3"/><line x1="276.1" y1="372.0" x2="276.1" y2="382.0" stroke="#2a78d6" stroke-width="1.3"/><line x1="375.9" y1="372.0" x2="375.9" y2="382.0" stroke="#2a78d6" stroke-width="1.3"/><rect x="280.7" y="366.0" width="74.0" height="22.0" fill="#2a78d6" fill-opacity="0.2" stroke="#2a78d6" stroke-width="1.3" rx="0"/><line x1="333.6" y1="366.0" x2="333.6" y2="388.0" stroke="#2a78d6" stroke-width="2.6"/><line x1="402.6" y1="362.0" x2="402.6" y2="392.0" stroke="#eb6834" stroke-width="1.4" stroke-dasharray="3 3"/><text x="409.6" y="381.0" font-family="-apple-system,BlinkMacSystemFont,'Segoe UI',Roboto,Helvetica,Arial,sans-serif" font-size="10" fill="#eb6834" text-anchor="start" font-weight="normal">agency founded 2011</text><circle cx="376.4" cy="377.0" r="2.4" fill="#eb6834" fill-opacity="0.75"/><circle cx="377.5" cy="377.0" r="2.4" fill="#eb6834" fill-opacity="0.75"/><circle cx="378.0" cy="377.0" r="2.4" fill="#eb6834" fill-opacity="0.75"/><circle cx="378.0" cy="377.0" r="2.4" fill="#eb6834" fill-opacity="0.75"/><circle cx="381.3" cy="377.0" r="2.4" fill="#eb6834" fill-opacity="0.75"/><circle cx="381.8" cy="377.0" r="2.4" fill="#eb6834" fill-opacity="0.75"/><circle cx="382.7" cy="377.0" r="2.4" fill="#eb6834" fill-opacity="0.75"/><circle cx="383.7" cy="377.0" r="2.4" fill="#eb6834" fill-opacity="0.75"/><circle cx="383.7" cy="377.0" r="2.4" fill="#eb6834" fill-opacity="0.75"/><circle cx="383.7" cy="377.0" r="2.4" fill="#eb6834" fill-opacity="0.75"/><circle cx="384.0" cy="377.0" r="2.4" fill="#eb6834" fill-opacity="0.75"/><circle cx="384.0" cy="377.0" r="2.4" fill="#eb6834" fill-opacity="0.75"/><circle cx="389.3" cy="377.0" r="2.4" fill="#eb6834" fill-opacity="0.75"/><circle cx="389.3" cy="377.0" r="2.4" fill="#eb6834" fill-opacity="0.75"/><circle cx="392.8" cy="377.0" r="2.4" fill="#eb6834" fill-opacity="0.75"/><circle cx="392.8" cy="377.0" r="2.4" fill="#eb6834" fill-opacity="0.75"/><circle cx="394.0" cy="377.0" r="2.4" fill="#eb6834" fill-opacity="0.75"/><rect x="1038.0" y="370.0" width="47.4" height="14.0" fill="#1baf7a" fill-opacity="0.75" stroke="none" stroke-width="1" rx="0"/><text x="1112.0" y="381.0" font-family="-apple-system,BlinkMacSystemFont,'Segoe UI',Roboto,Helvetica,Arial,sans-serif" font-size="11.5" fill="#1c2530" text-anchor="start" font-weight="normal">1.7</text><text x="248.0" y="418.0" font-family="-apple-system,BlinkMacSystemFont,'Segoe UI',Roboto,Helvetica,Arial,sans-serif" font-size="12.5" fill="#1c2530" text-anchor="end" font-weight="normal">OCC</text><text x="248.0" y="432.0" font-family="-apple-system,BlinkMacSystemFont,'Segoe UI',Roboto,Helvetica,Arial,sans-serif" font-size="10.5" fill="#6b7684" text-anchor="end" font-weight="normal">n=400</text><line x1="283.9" y1="419.0" x2="313.2" y2="419.0" stroke="#2a78d6" stroke-width="1.3"/><line x1="369.6" y1="419.0" x2="426.8" y2="419.0" stroke="#2a78d6" stroke-width="1.3"/><line x1="283.9" y1="414.0" x2="283.9" y2="424.0" stroke="#2a78d6" stroke-width="1.3"/><line x1="426.8" y1="414.0" x2="426.8" y2="424.0" stroke="#2a78d6" stroke-width="1.3"/><rect x="313.2" y="408.0" width="56.4" height="22.0" fill="#2a78d6" fill-opacity="0.2" stroke="#2a78d6" stroke-width="1.3" rx="0"/><line x1="323.6" y1="408.0" x2="323.6" y2="430.0" stroke="#2a78d6" stroke-width="2.6"/><circle cx="465.9" cy="419.0" r="2.4" fill="#eb6834" fill-opacity="0.75"/><circle cx="465.9" cy="419.0" r="2.4" fill="#eb6834" fill-opacity="0.75"/><circle cx="465.9" cy="419.0" r="2.4" fill="#eb6834" fill-opacity="0.75"/><circle cx="465.9" cy="419.0" r="2.4" fill="#eb6834" fill-opacity="0.75"/><circle cx="465.9" cy="419.0" r="2.4" fill="#eb6834" fill-opacity="0.75"/><circle cx="465.9" cy="419.0" r="2.4" fill="#eb6834" fill-opacity="0.75"/><circle cx="465.9" cy="419.0" r="2.4" fill="#eb6834" fill-opacity="0.75"/><circle cx="465.9" cy="419.0" r="2.4" fill="#eb6834" fill-opacity="0.75"/><circle cx="465.9" cy="419.0" r="2.4" fill="#eb6834" fill-opacity="0.75"/><circle cx="465.9" cy="419.0" r="2.4" fill="#eb6834" fill-opacity="0.75"/><circle cx="465.9" cy="419.0" r="2.4" fill="#eb6834" fill-opacity="0.75"/><circle cx="488.0" cy="419.0" r="2.4" fill="#eb6834" fill-opacity="0.75"/><circle cx="488.0" cy="419.0" r="2.4" fill="#eb6834" fill-opacity="0.75"/><circle cx="488.0" cy="419.0" r="2.4" fill="#eb6834" fill-opacity="0.75"/><circle cx="488.0" cy="419.0" r="2.4" fill="#eb6834" fill-opacity="0.75"/><circle cx="502.9" cy="419.0" r="2.4" fill="#eb6834" fill-opacity="0.75"/><circle cx="503.9" cy="419.0" r="2.4" fill="#eb6834" fill-opacity="0.75"/><circle cx="503.9" cy="419.0" r="2.4" fill="#eb6834" fill-opacity="0.75"/><circle cx="506.7" cy="419.0" r="2.4" fill="#eb6834" fill-opacity="0.75"/><circle cx="511.7" cy="419.0" r="2.4" fill="#eb6834" fill-opacity="0.75"/><circle cx="511.7" cy="419.0" r="2.4" fill="#eb6834" fill-opacity="0.75"/><circle cx="512.1" cy="419.0" r="2.4" fill="#eb6834" fill-opacity="0.75"/><circle cx="518.4" cy="419.0" r="2.4" fill="#eb6834" fill-opacity="0.75"/><circle cx="529.2" cy="419.0" r="2.4" fill="#eb6834" fill-opacity="0.75"/><circle cx="551.4" cy="419.0" r="2.4" fill="#eb6834" fill-opacity="0.75"/><rect x="1038.0" y="412.0" width="47.6" height="14.0" fill="#1baf7a" fill-opacity="0.75" stroke="none" stroke-width="1" rx="0"/><text x="1112.0" y="423.0" font-family="-apple-system,BlinkMacSystemFont,'Segoe UI',Roboto,Helvetica,Arial,sans-serif" font-size="11.5" fill="#1c2530" text-anchor="start" font-weight="normal">1.7</text><text x="248.0" y="460.0" font-family="-apple-system,BlinkMacSystemFont,'Segoe UI',Roboto,Helvetica,Arial,sans-serif" font-size="12.5" fill="#1c2530" text-anchor="end" font-weight="normal">Export-Import Bank</text><text x="248.0" y="474.0" font-family="-apple-system,BlinkMacSystemFont,'Segoe UI',Roboto,Helvetica,Arial,sans-serif" font-size="10.5" fill="#6b7684" text-anchor="end" font-weight="normal">n=34</text><line x1="299.3" y1="461.0" x2="299.3" y2="461.0" stroke="#2a78d6" stroke-width="1.3"/><line x1="397.7" y1="461.0" x2="430.5" y2="461.0" stroke="#2a78d6" stroke-width="1.3"/><line x1="299.3" y1="456.0" x2="299.3" y2="466.0" stroke="#2a78d6" stroke-width="1.3"/><line x1="430.5" y1="456.0" x2="430.5" y2="466.0" stroke="#2a78d6" stroke-width="1.3"/><rect x="299.3" y="450.0" width="98.4" height="22.0" fill="#2a78d6" fill-opacity="0.2" stroke="#2a78d6" stroke-width="1.3" rx="0"/><line x1="299.3" y1="450.0" x2="299.3" y2="472.0" stroke="#2a78d6" stroke-width="2.6"/><circle cx="625.5" cy="461.0" r="2.4" fill="#eb6834" fill-opacity="0.75"/><circle cx="625.5" cy="461.0" r="2.4" fill="#eb6834" fill-opacity="0.75"/><circle cx="625.5" cy="461.0" r="2.4" fill="#eb6834" fill-opacity="0.75"/><rect x="1038.0" y="454.0" width="34.0" height="14.0" fill="#1baf7a" fill-opacity="0.75" stroke="none" stroke-width="1" rx="0"/><text x="1112.0" y="465.0" font-family="-apple-system,BlinkMacSystemFont,'Segoe UI',Roboto,Helvetica,Arial,sans-serif" font-size="11.5" fill="#1c2530" text-anchor="start" font-weight="normal">1.2</text><text x="40.0" y="546.0" font-family="-apple-system,BlinkMacSystemFont,'Segoe UI',Roboto,Helvetica,Arial,sans-serif" font-size="10.5" fill="#6b7684" text-anchor="start" font-weight="normal">A young median can mean a diligent regulator or a new one. CFPB (2011) cannot hold a rule older than itself, so its box is truncated, not tidy — do not read it as</text><text x="40.0" y="560.0" font-family="-apple-system,BlinkMacSystemFont,'Segoe UI',Roboto,Helvetica,Arial,sans-serif" font-size="10.5" fill="#6b7684" text-anchor="start" font-weight="normal">faster maintenance. FHFA is 19 years old and holds 26-year-old rules inherited from OFHEO and the FHFB, so it is not capped and is not marked.</text><text x="40.0" y="576.0" font-family="-apple-system,BlinkMacSystemFont,'Segoe UI',Roboto,Helvetica,Arial,sans-serif" font-size="10.5" fill="#6b7684" text-anchor="start" font-weight="normal">Source: eCFR full-text API, snapshot 2026-09-01. Dates parsed from Federal Register source notes. An amendment count is the number of Federal Register citations after the first, so it undercounts any section since republished.</text></svg>