<svg xmlns="http://www.w3.org/2000/svg" width="1180" height="778" viewBox="0 0 1180 778"><rect width="1180" height="778" fill="#ffffff"/><text x="40.0" y="44.0" font-family="-apple-system,BlinkMacSystemFont,'Segoe UI',Roboto,Helvetica,Arial,sans-serif" font-size="21" fill="#1c2530" text-anchor="start" font-weight="600">Withdrawal is normal, and it is not increasing</text><text x="40.0" y="70.0" font-family="-apple-system,BlinkMacSystemFont,'Segoe UI',Roboto,Helvetica,Arial,sans-serif" font-size="12.5" fill="#6b7684" text-anchor="start" font-weight="normal">Every GRAS notice FDA closed in each year, by outcome. A notice is “withdrawn” when FDA records that, at the notifier’s request, it ceased to evaluate.</text><text x="40.0" y="88.0" font-family="-apple-system,BlinkMacSystemFont,'Segoe UI',Roboto,Helvetica,Arial,sans-serif" font-size="12.5" fill="#6b7684" text-anchor="start" font-weight="normal">Source: FDA GRAS Notice Inventory, gras-notices-2026-09-11.csv. 1,336 notices, GRN 1–1336. 2026 is a partial year.</text><rect x="40.0" y="111.0" width="11.0" height="11.0" fill="#2a78d6" fill-opacity="0.9" stroke="none" stroke-width="1" rx="0"/><text x="57.0" y="120.5" font-family="-apple-system,BlinkMacSystemFont,'Segoe UI',Roboto,Helvetica,Arial,sans-serif" font-size="11.5" fill="#6b7684" text-anchor="start" font-weight="normal">FDA has no questions</text><rect x="206.0" y="111.0" width="11.0" height="11.0" fill="#eb6834" fill-opacity="0.9" stroke="none" stroke-width="1" rx="0"/><text x="223.0" y="120.5" font-family="-apple-system,BlinkMacSystemFont,'Segoe UI',Roboto,Helvetica,Arial,sans-serif" font-size="11.5" fill="#6b7684" text-anchor="start" font-weight="normal">withdrawn at notifier's request</text><rect x="439.6" y="111.0" width="11.0" height="11.0" fill="#4a3aa7" fill-opacity="0.9" stroke="none" stroke-width="1" rx="0"/><text x="456.6" y="120.5" font-family="-apple-system,BlinkMacSystemFont,'Segoe UI',Roboto,Helvetica,Arial,sans-serif" font-size="11.5" fill="#6b7684" text-anchor="start" font-weight="normal">no basis for a GRAS determination</text><rect x="685.6" y="111.0" width="11.0" height="11.0" fill="#6b7684" fill-opacity="0.9" stroke="none" stroke-width="1" rx="0"/><text x="702.6" y="120.5" font-family="-apple-system,BlinkMacSystemFont,'Segoe UI',Roboto,Helvetica,Arial,sans-serif" font-size="11.5" fill="#6b7684" text-anchor="start" font-weight="normal">pending</text><text x="88.0" y="160.0" font-family="-apple-system,BlinkMacSystemFont,'Segoe UI',Roboto,Helvetica,Arial,sans-serif" font-size="12" fill="#1c2530" text-anchor="start" font-weight="600">withdrawn, % of that year's closures</text><line x1="88.0" y1="308.0" x2="1134.0" y2="308.0" stroke="#dfe4ea" stroke-width="1"/><text x="78.0" y="312.0" font-family="-apple-system,BlinkMacSystemFont,'Segoe UI',Roboto,Helvetica,Arial,sans-serif" font-size="10.5" fill="#6b7684" text-anchor="end" font-weight="normal">0%</text><line x1="88.0" y1="275.0" x2="1134.0" y2="275.0" stroke="#dfe4ea" stroke-width="1"/><text x="78.0" y="279.0" font-family="-apple-system,BlinkMacSystemFont,'Segoe UI',Roboto,Helvetica,Arial,sans-serif" font-size="10.5" fill="#6b7684" text-anchor="end" font-weight="normal">10%</text><line x1="88.0" y1="242.0" x2="1134.0" y2="242.0" stroke="#dfe4ea" stroke-width="1"/><text x="78.0" y="246.0" font-family="-apple-system,BlinkMacSystemFont,'Segoe UI',Roboto,Helvetica,Arial,sans-serif" font-size="10.5" fill="#6b7684" text-anchor="end" font-weight="normal">20%</text><line x1="88.0" y1="209.0" x2="1134.0" y2="209.0" stroke="#dfe4ea" stroke-width="1"/><text x="78.0" y="213.0" font-family="-apple-system,BlinkMacSystemFont,'Segoe UI',Roboto,Helvetica,Arial,sans-serif" font-size="10.5" fill="#6b7684" text-anchor="end" font-weight="normal">30%</text><line x1="88.0" y1="176.0" x2="1134.0" y2="176.0" stroke="#dfe4ea" stroke-width="1"/><text x="78.0" y="180.0" font-family="-apple-system,BlinkMacSystemFont,'Segoe UI',Roboto,Helvetica,Arial,sans-serif" font-size="10.5" fill="#6b7684" text-anchor="end" font-weight="normal">40%</text><line x1="88.0" y1="251.2" x2="1134.0" y2="251.2" stroke="#4a3aa7" stroke-width="1.3" stroke-dasharray="5 4"/><text x="1130.0" y="244.2" font-family="-apple-system,BlinkMacSystemFont,'Segoe UI',Roboto,Helvetica,Arial,sans-serif" font-size="10.5" fill="#4a3aa7" text-anchor="end" font-weight="normal">mean 17.2%</text><polyline fill="none" stroke="#eb6834" stroke-width="2" points="106.7,258.5 144.0,266.8 181.4,272.6 218.7,254.8 256.1,308.0 293.5,253.0 330.8,198.0 368.2,273.9 405.5,273.3 442.9,201.9 480.2,256.7 517.6,239.2 555.0,245.1 592.3,248.6 629.7,249.8 667.0,267.5 704.4,255.6 741.8,227.7 779.1,216.3 816.5,277.6 853.8,257.2 891.2,246.5 928.5,246.7 965.9,212.8 1003.2,269.2 1040.6,220.3 1078.0,262.8 1115.3,291.9"/><circle cx="106.7" cy="258.5" r="3" fill="#eb6834" stroke="none" stroke-width="1"/><circle cx="144.0" cy="266.8" r="3" fill="#eb6834" stroke="none" stroke-width="1"/><circle cx="181.4" cy="272.6" r="3" fill="#eb6834" stroke="none" stroke-width="1"/><circle cx="218.7" cy="254.8" r="3" fill="#eb6834" stroke="none" stroke-width="1"/><circle cx="256.1" cy="308.0" r="3" fill="#eb6834" stroke="none" stroke-width="1"/><circle cx="293.5" cy="253.0" r="3" fill="#eb6834" stroke="none" stroke-width="1"/><circle cx="330.8" cy="198.0" r="3" fill="#eb6834" stroke="none" stroke-width="1"/><circle cx="368.2" cy="273.9" r="3" fill="#eb6834" stroke="none" stroke-width="1"/><circle cx="405.5" cy="273.3" r="3" fill="#eb6834" stroke="none" stroke-width="1"/><circle cx="442.9" cy="201.9" r="3" fill="#eb6834" stroke="none" stroke-width="1"/><circle cx="480.2" cy="256.7" r="3" fill="#eb6834" stroke="none" stroke-width="1"/><circle cx="517.6" cy="239.2" r="3" fill="#eb6834" stroke="none" stroke-width="1"/><circle cx="555.0" cy="245.1" r="3" fill="#eb6834" stroke="none" stroke-width="1"/><circle cx="592.3" cy="248.6" r="3" fill="#eb6834" stroke="none" stroke-width="1"/><circle cx="629.7" cy="249.8" r="3" fill="#eb6834" stroke="none" stroke-width="1"/><circle cx="667.0" cy="267.5" r="3" fill="#eb6834" stroke="none" stroke-width="1"/><circle cx="704.4" cy="255.6" r="3" fill="#eb6834" stroke="none" stroke-width="1"/><circle cx="741.8" cy="227.7" r="3" fill="#eb6834" stroke="none" stroke-width="1"/><circle cx="779.1" cy="216.3" r="3" fill="#eb6834" stroke="none" stroke-width="1"/><circle cx="816.5" cy="277.6" r="3" fill="#eb6834" stroke="none" stroke-width="1"/><circle cx="853.8" cy="257.2" r="3" fill="#eb6834" stroke="none" stroke-width="1"/><circle cx="891.2" cy="246.5" r="3" fill="#eb6834" stroke="none" stroke-width="1"/><circle cx="928.5" cy="246.7" r="3" fill="#eb6834" stroke="none" stroke-width="1"/><circle cx="965.9" cy="212.8" r="3" fill="#eb6834" stroke="none" stroke-width="1"/><circle cx="1003.2" cy="269.2" r="3" fill="#eb6834" stroke="none" stroke-width="1"/><circle cx="1040.6" cy="220.3" r="3" fill="#eb6834" stroke="none" stroke-width="1"/><circle cx="1078.0" cy="262.8" r="3" fill="#eb6834" stroke="none" stroke-width="1"/><circle cx="1115.3" cy="291.9" r="3" fill="#eb6834" stroke="none" stroke-width="1"/><text x="88.0" y="364.0" font-family="-apple-system,BlinkMacSystemFont,'Segoe UI',Roboto,Helvetica,Arial,sans-serif" font-size="12" fill="#1c2530" text-anchor="start" font-weight="600">notices closed</text><line x1="88.0" y1="630.0" x2="1134.0" y2="630.0" stroke="#dfe4ea" stroke-width="1"/><text x="78.0" y="634.0" font-family="-apple-system,BlinkMacSystemFont,'Segoe UI',Roboto,Helvetica,Arial,sans-serif" font-size="10.5" fill="#6b7684" text-anchor="end" font-weight="normal">0</text><line x1="88.0" y1="567.5" x2="1134.0" y2="567.5" stroke="#dfe4ea" stroke-width="1"/><text x="78.0" y="571.5" font-family="-apple-system,BlinkMacSystemFont,'Segoe UI',Roboto,Helvetica,Arial,sans-serif" font-size="10.5" fill="#6b7684" text-anchor="end" font-weight="normal">25</text><line x1="88.0" y1="505.0" x2="1134.0" y2="505.0" stroke="#dfe4ea" stroke-width="1"/><text x="78.0" y="509.0" font-family="-apple-system,BlinkMacSystemFont,'Segoe UI',Roboto,Helvetica,Arial,sans-serif" font-size="10.5" fill="#6b7684" text-anchor="end" font-weight="normal">50</text><line x1="88.0" y1="442.5" x2="1134.0" y2="442.5" stroke="#dfe4ea" stroke-width="1"/><text x="78.0" y="446.5" font-family="-apple-system,BlinkMacSystemFont,'Segoe UI',Roboto,Helvetica,Arial,sans-serif" font-size="10.5" fill="#6b7684" text-anchor="end" font-weight="normal">75</text><line x1="88.0" y1="380.0" x2="1134.0" y2="380.0" stroke="#dfe4ea" stroke-width="1"/><text x="78.0" y="384.0" font-family="-apple-system,BlinkMacSystemFont,'Segoe UI',Roboto,Helvetica,Arial,sans-serif" font-size="10.5" fill="#6b7684" text-anchor="end" font-weight="normal">100</text><rect x="94.0" y="602.5" width="25.4" height="27.5" fill="#2a78d6" fill-opacity="0.9" stroke="none" stroke-width="1" rx="0"/><rect x="94.0" y="595.0" width="25.4" height="7.5" fill="#eb6834" fill-opacity="0.9" stroke="none" stroke-width="1" rx="0"/><rect x="94.0" y="580.0" width="25.4" height="15.0" fill="#4a3aa7" fill-opacity="0.9" stroke="none" stroke-width="1" rx="0"/><text x="106.7" y="646.0" font-family="-apple-system,BlinkMacSystemFont,'Segoe UI',Roboto,Helvetica,Arial,sans-serif" font-size="10.5" fill="#6b7684" text-anchor="end" transform="rotate(-45 106.7 646.0)">1999</text><rect x="131.3" y="585.0" width="25.4" height="45.0" fill="#2a78d6" fill-opacity="0.9" stroke="none" stroke-width="1" rx="0"/><rect x="131.3" y="577.5" width="25.4" height="7.5" fill="#eb6834" fill-opacity="0.9" stroke="none" stroke-width="1" rx="0"/><rect x="131.3" y="570.0" width="25.4" height="7.5" fill="#4a3aa7" fill-opacity="0.9" stroke="none" stroke-width="1" rx="0"/><rect x="168.7" y="572.5" width="25.4" height="57.5" fill="#2a78d6" fill-opacity="0.9" stroke="none" stroke-width="1" rx="0"/><rect x="168.7" y="565.0" width="25.4" height="7.5" fill="#eb6834" fill-opacity="0.9" stroke="none" stroke-width="1" rx="0"/><rect x="168.7" y="560.0" width="25.4" height="5.0" fill="#4a3aa7" fill-opacity="0.9" stroke="none" stroke-width="1" rx="0"/><text x="181.4" y="646.0" font-family="-apple-system,BlinkMacSystemFont,'Segoe UI',Roboto,Helvetica,Arial,sans-serif" font-size="10.5" fill="#6b7684" text-anchor="end" transform="rotate(-45 181.4 646.0)">2001</text><rect x="206.0" y="577.5" width="25.4" height="52.5" fill="#2a78d6" fill-opacity="0.9" stroke="none" stroke-width="1" rx="0"/><rect x="206.0" y="565.0" width="25.4" height="12.5" fill="#eb6834" fill-opacity="0.9" stroke="none" stroke-width="1" rx="0"/><rect x="206.0" y="552.5" width="25.4" height="12.5" fill="#4a3aa7" fill-opacity="0.9" stroke="none" stroke-width="1" rx="0"/><rect x="243.4" y="575.0" width="25.4" height="55.0" fill="#2a78d6" fill-opacity="0.9" stroke="none" stroke-width="1" rx="0"/><text x="256.1" y="646.0" font-family="-apple-system,BlinkMacSystemFont,'Segoe UI',Roboto,Helvetica,Arial,sans-serif" font-size="10.5" fill="#6b7684" text-anchor="end" transform="rotate(-45 256.1 646.0)">2003</text><rect x="280.8" y="580.0" width="25.4" height="50.0" fill="#2a78d6" fill-opacity="0.9" stroke="none" stroke-width="1" rx="0"/><rect x="280.8" y="570.0" width="25.4" height="10.0" fill="#eb6834" fill-opacity="0.9" stroke="none" stroke-width="1" rx="0"/><rect x="318.1" y="600.0" width="25.4" height="30.0" fill="#2a78d6" fill-opacity="0.9" stroke="none" stroke-width="1" rx="0"/><rect x="318.1" y="585.0" width="25.4" height="15.0" fill="#eb6834" fill-opacity="0.9" stroke="none" stroke-width="1" rx="0"/><text x="330.8" y="646.0" font-family="-apple-system,BlinkMacSystemFont,'Segoe UI',Roboto,Helvetica,Arial,sans-serif" font-size="10.5" fill="#6b7684" text-anchor="end" transform="rotate(-45 330.8 646.0)">2005</text><rect x="355.5" y="565.0" width="25.4" height="65.0" fill="#2a78d6" fill-opacity="0.9" stroke="none" stroke-width="1" rx="0"/><rect x="355.5" y="557.5" width="25.4" height="7.5" fill="#eb6834" fill-opacity="0.9" stroke="none" stroke-width="1" rx="0"/><rect x="392.8" y="587.5" width="25.4" height="42.5" fill="#2a78d6" fill-opacity="0.9" stroke="none" stroke-width="1" rx="0"/><rect x="392.8" y="582.5" width="25.4" height="5.0" fill="#eb6834" fill-opacity="0.9" stroke="none" stroke-width="1" rx="0"/><text x="405.5" y="646.0" font-family="-apple-system,BlinkMacSystemFont,'Segoe UI',Roboto,Helvetica,Arial,sans-serif" font-size="10.5" fill="#6b7684" text-anchor="end" transform="rotate(-45 405.5 646.0)">2007</text><rect x="430.2" y="582.5" width="25.4" height="47.5" fill="#2a78d6" fill-opacity="0.9" stroke="none" stroke-width="1" rx="0"/><rect x="430.2" y="560.0" width="25.4" height="22.5" fill="#eb6834" fill-opacity="0.9" stroke="none" stroke-width="1" rx="0"/><rect x="467.5" y="535.0" width="25.4" height="95.0" fill="#2a78d6" fill-opacity="0.9" stroke="none" stroke-width="1" rx="0"/><rect x="467.5" y="517.5" width="25.4" height="17.5" fill="#eb6834" fill-opacity="0.9" stroke="none" stroke-width="1" rx="0"/><text x="480.2" y="646.0" font-family="-apple-system,BlinkMacSystemFont,'Segoe UI',Roboto,Helvetica,Arial,sans-serif" font-size="10.5" fill="#6b7684" text-anchor="end" transform="rotate(-45 480.2 646.0)">2009</text><rect x="504.9" y="535.0" width="25.4" height="95.0" fill="#2a78d6" fill-opacity="0.9" stroke="none" stroke-width="1" rx="0"/><rect x="504.9" y="510.0" width="25.4" height="25.0" fill="#eb6834" fill-opacity="0.9" stroke="none" stroke-width="1" rx="0"/><rect x="542.3" y="547.5" width="25.4" height="82.5" fill="#2a78d6" fill-opacity="0.9" stroke="none" stroke-width="1" rx="0"/><rect x="542.3" y="527.5" width="25.4" height="20.0" fill="#eb6834" fill-opacity="0.9" stroke="none" stroke-width="1" rx="0"/><rect x="542.3" y="525.0" width="25.4" height="2.5" fill="#4a3aa7" fill-opacity="0.9" stroke="none" stroke-width="1" rx="0"/><text x="555.0" y="646.0" font-family="-apple-system,BlinkMacSystemFont,'Segoe UI',Roboto,Helvetica,Arial,sans-serif" font-size="10.5" fill="#6b7684" text-anchor="end" transform="rotate(-45 555.0 646.0)">2011</text><rect x="579.6" y="527.5" width="25.4" height="102.5" fill="#2a78d6" fill-opacity="0.9" stroke="none" stroke-width="1" rx="0"/><rect x="579.6" y="505.0" width="25.4" height="22.5" fill="#eb6834" fill-opacity="0.9" stroke="none" stroke-width="1" rx="0"/><rect x="617.0" y="560.0" width="25.4" height="70.0" fill="#2a78d6" fill-opacity="0.9" stroke="none" stroke-width="1" rx="0"/><rect x="617.0" y="545.0" width="25.4" height="15.0" fill="#eb6834" fill-opacity="0.9" stroke="none" stroke-width="1" rx="0"/><text x="629.7" y="646.0" font-family="-apple-system,BlinkMacSystemFont,'Segoe UI',Roboto,Helvetica,Arial,sans-serif" font-size="10.5" fill="#6b7684" text-anchor="end" transform="rotate(-45 629.7 646.0)">2013</text><rect x="654.3" y="505.0" width="25.4" height="125.0" fill="#2a78d6" fill-opacity="0.9" stroke="none" stroke-width="1" rx="0"/><rect x="654.3" y="487.5" width="25.4" height="17.5" fill="#eb6834" fill-opacity="0.9" stroke="none" stroke-width="1" rx="0"/><rect x="691.7" y="497.5" width="25.4" height="132.5" fill="#2a78d6" fill-opacity="0.9" stroke="none" stroke-width="1" rx="0"/><rect x="691.7" y="472.5" width="25.4" height="25.0" fill="#eb6834" fill-opacity="0.9" stroke="none" stroke-width="1" rx="0"/><text x="704.4" y="646.0" font-family="-apple-system,BlinkMacSystemFont,'Segoe UI',Roboto,Helvetica,Arial,sans-serif" font-size="10.5" fill="#6b7684" text-anchor="end" transform="rotate(-45 704.4 646.0)">2015</text><rect x="729.0" y="490.0" width="25.4" height="140.0" fill="#2a78d6" fill-opacity="0.9" stroke="none" stroke-width="1" rx="0"/><rect x="729.0" y="445.0" width="25.4" height="45.0" fill="#eb6834" fill-opacity="0.9" stroke="none" stroke-width="1" rx="0"/><rect x="766.4" y="532.5" width="25.4" height="97.5" fill="#2a78d6" fill-opacity="0.9" stroke="none" stroke-width="1" rx="0"/><rect x="766.4" y="495.0" width="25.4" height="37.5" fill="#eb6834" fill-opacity="0.9" stroke="none" stroke-width="1" rx="0"/><text x="779.1" y="646.0" font-family="-apple-system,BlinkMacSystemFont,'Segoe UI',Roboto,Helvetica,Arial,sans-serif" font-size="10.5" fill="#6b7684" text-anchor="end" transform="rotate(-45 779.1 646.0)">2017</text><rect x="803.8" y="457.5" width="25.4" height="172.5" fill="#2a78d6" fill-opacity="0.9" stroke="none" stroke-width="1" rx="0"/><rect x="803.8" y="440.0" width="25.4" height="17.5" fill="#eb6834" fill-opacity="0.9" stroke="none" stroke-width="1" rx="0"/><rect x="841.1" y="492.5" width="25.4" height="137.5" fill="#2a78d6" fill-opacity="0.9" stroke="none" stroke-width="1" rx="0"/><rect x="841.1" y="467.5" width="25.4" height="25.0" fill="#eb6834" fill-opacity="0.9" stroke="none" stroke-width="1" rx="0"/><text x="853.8" y="646.0" font-family="-apple-system,BlinkMacSystemFont,'Segoe UI',Roboto,Helvetica,Arial,sans-serif" font-size="10.5" fill="#6b7684" text-anchor="end" transform="rotate(-45 853.8 646.0)">2019</text><rect x="878.5" y="510.0" width="25.4" height="120.0" fill="#2a78d6" fill-opacity="0.9" stroke="none" stroke-width="1" rx="0"/><rect x="878.5" y="482.5" width="25.4" height="27.5" fill="#eb6834" fill-opacity="0.9" stroke="none" stroke-width="1" rx="0"/><rect x="915.8" y="487.5" width="25.4" height="142.5" fill="#2a78d6" fill-opacity="0.9" stroke="none" stroke-width="1" rx="0"/><rect x="915.8" y="455.0" width="25.4" height="32.5" fill="#eb6834" fill-opacity="0.9" stroke="none" stroke-width="1" rx="0"/><text x="928.5" y="646.0" font-family="-apple-system,BlinkMacSystemFont,'Segoe UI',Roboto,Helvetica,Arial,sans-serif" font-size="10.5" fill="#6b7684" text-anchor="end" transform="rotate(-45 928.5 646.0)">2021</text><rect x="953.2" y="537.5" width="25.4" height="92.5" fill="#2a78d6" fill-opacity="0.9" stroke="none" stroke-width="1" rx="0"/><rect x="953.2" y="500.0" width="25.4" height="37.5" fill="#eb6834" fill-opacity="0.9" stroke="none" stroke-width="1" rx="0"/><rect x="990.5" y="442.5" width="25.4" height="187.5" fill="#2a78d6" fill-opacity="0.9" stroke="none" stroke-width="1" rx="0"/><rect x="990.5" y="417.5" width="25.4" height="25.0" fill="#eb6834" fill-opacity="0.9" stroke="none" stroke-width="1" rx="0"/><text x="1003.2" y="646.0" font-family="-apple-system,BlinkMacSystemFont,'Segoe UI',Roboto,Helvetica,Arial,sans-serif" font-size="10.5" fill="#6b7684" text-anchor="end" transform="rotate(-45 1003.2 646.0)">2023</text><rect x="1027.9" y="512.5" width="25.4" height="117.5" fill="#2a78d6" fill-opacity="0.9" stroke="none" stroke-width="1" rx="0"/><rect x="1027.9" y="470.0" width="25.4" height="42.5" fill="#eb6834" fill-opacity="0.9" stroke="none" stroke-width="1" rx="0"/><rect x="1065.3" y="477.5" width="25.4" height="152.5" fill="#2a78d6" fill-opacity="0.9" stroke="none" stroke-width="1" rx="0"/><rect x="1065.3" y="452.5" width="25.4" height="25.0" fill="#eb6834" fill-opacity="0.9" stroke="none" stroke-width="1" rx="0"/><rect x="1065.3" y="447.5" width="25.4" height="5.0" fill="#4a3aa7" fill-opacity="0.9" stroke="none" stroke-width="1" rx="0"/><text x="1078.0" y="646.0" font-family="-apple-system,BlinkMacSystemFont,'Segoe UI',Roboto,Helvetica,Arial,sans-serif" font-size="10.5" fill="#6b7684" text-anchor="end" transform="rotate(-45 1078.0 646.0)">2025</text><rect x="1102.6" y="535.0" width="25.4" height="95.0" fill="#2a78d6" fill-opacity="0.9" stroke="none" stroke-width="1" rx="0"/><rect x="1102.6" y="530.0" width="25.4" height="5.0" fill="#eb6834" fill-opacity="0.9" stroke="none" stroke-width="1" rx="0"/><rect x="1102.6" y="527.5" width="25.4" height="2.5" fill="#4a3aa7" fill-opacity="0.9" stroke="none" stroke-width="1" rx="0"/><text x="1115.3" y="646.0" font-family="-apple-system,BlinkMacSystemFont,'Segoe UI',Roboto,Helvetica,Arial,sans-serif" font-size="10.5" fill="#6b7684" text-anchor="end" transform="rotate(-45 1115.3 646.0)">2026</text><line x1="88.0" y1="630.0" x2="1134.0" y2="630.0" stroke="#1c2530" stroke-width="1.4"/><text x="40.0" y="706.0" font-family="-apple-system,BlinkMacSystemFont,'Segoe UI',Roboto,Helvetica,Arial,sans-serif" font-size="12" fill="#6b7684" text-anchor="start" font-weight="normal">The rate ranges from 0% to 33% with no trend across 28 years, on a mean of 17.2%. Reading any single year as a signal is reading noise.</text><text x="40.0" y="760.0" font-family="-apple-system,BlinkMacSystemFont,'Segoe UI',Roboto,Helvetica,Arial,sans-serif" font-size="10.5" fill="#6b7684" text-anchor="start" font-weight="normal">Years with fewer than 8 closures omitted. Outcome is FDA's own letter text, classified verbatim.</text></svg>